# xmcd CD database file
#
# Track frame offsets:
#	150
#	20945
#	46858
#	70609
#	96986
#	119407
#	136508
#	157950
#
# Disc length: 2596 seconds
#
# Revision: 0
# Processed by: cddbd v1.5.1PL0 Copyright (c) Steve Scherf et al.
# Submitted via: CDex 1.51
#
DISCID=620a2208
DTITLE=Toots Thielemans - Tenor Madness
DYEAR=1900
DGENRE=Jazz
TTITLE0=Tenor Madness  (S. Rollins)
TTITLE1=There'll never be another You  (H. Warren)
TTITLE2=Someday my Prince will come  (Churchill, Morell)
TTITLE3=Spirit of St. Louis  (J. G. Biel)
TTITLE4=Isn't she lovely  (S. Wonder)
TTITLE5=You must believe in Spring  (M. Legrand)
TTITLE6=All Night long  (J. Biel)
TTITLE7=Parking Lot Blues  (Ray Brown)
EXTD=
EXTT0=
EXTT1=
EXTT2=
EXTT3=
EXTT4=
EXTT5=
EXTT6=
EXTT7=
PLAYORDER=
